<svg xmlns="http://www.w3.org/2000/svg" viewBox="0 0 500 500">
  <rect width="500" height="500" rx="100" ry="100"></rect>
  <rect x="62" y="68" width="376" height="142" style="fill: white" rx="10" ry="10"></rect>
  <path d="M 86.599 187.093 C 86.599 188.373 87.212 189.573 88.439 190.693 C 89.666 191.813 91.159 192.746 92.919 193.493 C 94.679 194.24 96.439 194.826 98.199 195.253 C 99.959 195.68 101.426 195.893 102.599 195.893 C 106.012 195.893 109.266 195.36 112.359 194.293 C 115.452 193.226 118.706 192.693 122.119 192.693 C 124.146 192.693 126.092 193.04 127.959 193.733 C 129.826 194.426 131.772 194.773 133.799 194.773 C 135.186 194.773 136.546 194.64 137.879 194.373 C 139.212 194.106 140.412 193.68 141.479 193.093 C 142.546 192.506 143.399 191.706 144.039 190.693 C 144.679 189.68 144.999 188.426 144.999 186.933 C 144.999 184.373 144.279 182.453 142.839 181.173 C 141.399 179.893 139.639 178.96 137.559 178.373 C 135.479 177.786 133.266 177.44 130.919 177.333 C 128.572 177.226 126.546 177.173 124.839 177.173 L 123.559 175.893 L 122.759 124.533 L 122.759 121.333 L 122.439 105.653 C 122.866 104.16 123.159 102.453 123.319 100.533 C 123.479 98.613 123.559 97.013 123.559 95.733 L 124.199 95.093 C 124.306 95.093 124.679 95.066 125.319 95.013 C 125.959 94.96 126.386 94.933 126.599 94.933 C 128.092 94.933 129.666 95.146 131.319 95.573 C 132.972 96 134.519 96.666 135.959 97.573 C 137.399 98.48 138.572 99.6 139.479 100.933 C 140.386 102.266 140.839 103.84 140.839 105.653 L 140.839 122.613 C 140.839 124.533 141.639 126.293 143.239 127.893 C 144.839 129.493 146.546 130.293 148.359 130.293 C 150.599 130.293 152.359 129.333 153.639 127.413 C 154.919 125.493 155.559 123.466 155.559 121.333 L 155.559 89.493 C 155.559 87.466 154.732 85.546 153.079 83.733 C 151.426 81.92 149.532 81.013 147.399 81.013 L 111.719 81.013 C 110.759 80.48 109.959 80.186 109.319 80.133 C 108.679 80.08 107.932 80.053 107.079 80.053 C 106.119 80.053 105.346 80.08 104.759 80.133 C 104.172 80.186 103.346 80.48 102.279 81.013 L 82.919 81.013 C 81.959 81.013 81.079 81.386 80.279 82.133 C 79.479 82.88 78.759 83.76 78.119 84.773 C 77.479 85.786 76.972 86.826 76.599 87.893 C 76.226 88.96 76.039 89.866 76.039 90.613 L 76.039 121.333 C 76.039 123.253 76.572 125.226 77.639 127.253 C 78.706 129.28 80.306 130.293 82.439 130.293 C 85.106 130.293 86.972 129.573 88.039 128.133 C 89.106 126.693 89.746 124.88 89.959 122.693 C 90.172 120.506 90.252 118.08 90.199 115.413 C 90.146 112.746 90.386 110.16 90.919 107.653 C 91.452 105.146 92.492 102.853 94.039 100.773 C 95.586 98.693 98.119 97.226 101.639 96.373 C 101.852 96.266 102.359 96.186 103.159 96.133 C 103.959 96.08 104.519 96.053 104.839 96.053 C 105.052 96.053 105.479 96.08 106.119 96.133 C 106.759 96.186 107.186 96.266 107.399 96.373 L 108.039 97.013 L 108.039 176.533 L 106.119 178.613 L 91.079 178.613 C 90.119 178.613 89.346 178.933 88.759 179.573 C 88.172 180.213 87.719 180.986 87.399 181.893 C 87.079 182.8 86.866 183.733 86.759 184.693 C 86.652 185.653 86.599 186.453 86.599 187.093 Z M 159.077 189.013 C 159.077 190.826 159.424 192.32 160.117 193.493 C 160.81 194.666 161.744 195.6 162.917 196.293 C 164.09 196.986 165.397 197.466 166.837 197.733 C 168.277 198 169.744 198.133 171.237 198.133 C 173.69 198.133 175.984 198.026 178.117 197.813 C 180.25 197.6 182.544 197.493 184.997 197.493 C 186.17 197.493 187.744 197.466 189.717 197.413 C 191.69 197.36 193.37 197.6 194.757 198.133 L 216.677 198.133 C 219.45 198.133 222.037 197.306 224.437 195.653 C 226.837 194 228.037 191.626 228.037 188.533 C 228.037 187.573 227.744 186.613 227.157 185.653 C 226.57 184.693 225.85 183.866 224.997 183.173 C 224.144 182.48 223.184 181.92 222.117 181.493 C 221.05 181.066 220.037 180.853 219.077 180.853 L 203.557 180.853 L 201.637 178.773 L 201.637 136.853 C 201.957 135.786 202.144 134.88 202.197 134.133 C 202.25 133.386 202.277 132.533 202.277 131.573 C 202.277 130.506 202.25 129.626 202.197 128.933 C 202.144 128.24 201.957 127.306 201.637 126.133 L 201.637 99.253 L 202.277 98.613 L 205.477 98.613 C 207.504 98.613 209.424 98.746 211.237 99.013 C 213.05 99.28 214.97 99.413 216.997 99.413 C 219.77 99.413 222.09 98.96 223.957 98.053 C 225.824 97.146 226.757 95.146 226.757 92.053 C 226.757 88.746 225.717 86.56 223.637 85.493 C 221.557 84.426 219.077 83.786 216.197 83.573 C 213.317 83.36 210.384 83.306 207.397 83.413 C 204.41 83.52 202.064 83.093 200.357 82.133 L 174.757 82.133 C 173.69 81.6 172.864 81.306 172.277 81.253 C 171.69 81.2 170.97 81.173 170.117 81.173 C 168.944 81.173 167.717 81.36 166.437 81.733 C 165.157 82.106 164.01 82.666 162.997 83.413 C 161.984 84.16 161.157 85.066 160.517 86.133 C 159.877 87.2 159.557 88.373 159.557 89.653 C 159.557 90.826 159.877 92 160.517 93.173 C 161.157 94.346 161.957 95.413 162.917 96.373 C 163.877 97.333 164.944 98.106 166.117 98.693 C 167.29 99.28 168.464 99.573 169.637 99.573 L 186.597 99.573 L 187.237 100.533 C 187.237 100.64 187.264 100.933 187.317 101.413 C 187.37 101.893 187.397 102.24 187.397 102.453 C 187.397 103.52 187.344 104.453 187.237 105.253 C 187.13 106.053 186.81 106.986 186.277 108.053 L 186.277 178.773 C 186.277 179.093 185.904 179.386 185.157 179.653 C 184.41 179.92 183.61 180.133 182.757 180.293 C 181.904 180.453 181.05 180.56 180.197 180.613 C 179.344 180.666 178.864 180.693 178.757 180.693 C 177.264 180.693 175.797 180.56 174.357 180.293 C 172.917 180.026 171.45 179.893 169.957 179.893 C 167.184 179.893 164.677 180.64 162.437 182.133 C 160.197 183.626 159.077 185.92 159.077 189.013 Z M 287.715 170.133 L 293.955 190.133 C 294.488 191.946 295.662 193.546 297.475 194.933 C 299.288 196.32 301.155 197.013 303.075 197.013 C 305.208 197.013 307.155 196.213 308.915 194.613 C 310.675 193.013 311.555 191.093 311.555 188.853 L 311.235 136.853 L 311.235 133.813 L 310.915 98.133 L 311.555 97.493 C 312.622 97.493 313.848 97.493 315.235 97.493 C 316.622 97.493 317.982 97.413 319.315 97.253 C 320.648 97.093 321.902 96.746 323.075 96.213 C 324.248 95.68 325.208 94.826 325.955 93.653 C 325.955 93.44 325.982 92.96 326.035 92.213 C 326.088 91.466 326.115 90.986 326.115 90.773 C 326.115 87.36 324.835 84.88 322.275 83.333 C 319.715 81.786 316.835 81.013 313.635 81.013 C 312.568 81.013 311.688 81.066 310.995 81.173 C 310.302 81.28 309.422 81.6 308.355 82.133 L 284.035 82.133 C 282.542 82.133 281.315 82.693 280.355 83.813 C 279.395 84.933 278.915 86.133 278.915 87.413 C 278.915 89.653 279.448 91.413 280.515 92.693 C 281.582 93.973 282.942 94.96 284.595 95.653 C 286.248 96.346 288.035 96.8 289.955 97.013 C 291.875 97.226 293.635 97.386 295.235 97.493 L 296.835 98.613 L 296.835 143.733 C 297.048 143.946 297.262 144.48 297.475 145.333 C 297.688 146.186 297.795 146.72 297.795 146.933 C 297.795 147.466 297.795 148.373 297.795 149.653 C 297.795 150.933 297.768 152.266 297.715 153.653 C 297.662 155.04 297.608 156.373 297.555 157.653 C 297.502 158.933 297.475 159.84 297.475 160.373 C 297.368 160.373 297.315 160.48 297.315 160.693 C 297.315 160.8 297.262 160.8 297.155 160.693 C 297.048 160.586 296.835 160.293 296.515 159.813 C 296.195 159.333 295.982 158.986 295.875 158.773 C 293.528 153.973 291.315 148.906 289.235 143.573 C 287.155 138.24 285.208 133.28 283.395 128.693 C 283.395 128.586 283.315 128.32 283.155 127.893 C 282.995 127.466 282.862 127.013 282.755 126.533 C 282.648 126.053 282.515 125.6 282.355 125.173 C 282.195 124.746 282.115 124.48 282.115 124.373 C 282.008 124.053 281.635 123.253 280.995 121.973 C 280.355 120.693 279.688 119.306 278.995 117.813 C 278.302 116.32 277.635 114.933 276.995 113.653 C 276.355 112.373 275.982 111.573 275.875 111.253 C 275.662 110.72 275.182 109.44 274.435 107.413 C 273.688 105.386 272.915 103.2 272.115 100.853 C 271.315 98.506 270.542 96.346 269.795 94.373 C 269.048 92.4 268.568 91.146 268.355 90.613 C 267.715 88.8 266.622 86.986 265.075 85.173 C 263.528 83.36 261.688 82.453 259.555 82.453 L 241.475 82.453 C 238.915 82.453 236.782 83.253 235.075 84.853 C 233.368 86.453 232.515 88.426 232.515 90.773 C 232.515 91.306 232.568 91.973 232.675 92.773 C 232.782 93.573 232.968 94.32 233.235 95.013 C 233.502 95.706 233.875 96.293 234.355 96.773 C 234.835 97.253 235.502 97.493 236.355 97.493 L 247.715 97.493 L 248.995 98.613 C 248.995 109.6 249.208 120.506 249.635 131.333 C 250.062 142.16 250.275 153.013 250.275 163.893 C 250.275 166.133 250.115 168.293 249.795 170.373 C 249.475 172.453 249.422 174.666 249.635 177.013 L 248.355 178.293 C 247.928 178.293 247.208 178.32 246.195 178.373 C 245.182 178.426 244.115 178.48 242.995 178.533 C 241.875 178.586 240.808 178.64 239.795 178.693 C 238.782 178.746 238.062 178.773 237.635 178.773 C 235.715 178.986 234.302 180.026 233.395 181.893 C 232.488 183.76 231.822 185.44 231.395 186.933 L 231.395 188.533 C 231.395 190.346 232.008 191.866 233.235 193.093 C 234.462 194.32 235.928 195.2 237.635 195.733 C 238.275 195.733 239.368 195.786 240.915 195.893 C 242.462 196 244.088 196.08 245.795 196.133 C 247.502 196.186 249.128 196.24 250.675 196.293 C 252.222 196.346 253.315 196.373 253.955 196.373 L 256.355 196.373 C 260.408 196.373 264.248 196.106 267.875 195.573 C 271.502 195.04 275.395 194.88 279.555 195.093 C 281.688 194.56 283.075 193.466 283.715 191.813 C 284.355 190.16 284.675 188.48 284.675 186.773 L 284.675 184.533 L 282.115 181.973 C 282.008 181.866 281.662 181.706 281.075 181.493 C 280.488 181.28 279.795 181.04 278.995 180.773 C 278.195 180.506 277.368 180.24 276.515 179.973 C 275.662 179.706 275.022 179.52 274.595 179.413 L 272.995 179.413 C 272.035 179.413 271.208 179.653 270.515 180.133 C 269.822 180.613 268.995 180.853 268.035 180.853 C 267.288 180.853 266.328 180.426 265.155 179.573 C 263.982 178.72 263.395 177.866 263.395 177.013 L 263.395 160.693 C 263.822 159.52 264.035 158.453 264.035 157.493 C 264.035 156.426 264.035 155.306 264.035 154.133 C 264.035 152.96 264.035 151.893 264.035 150.933 C 264.035 149.866 263.822 148.746 263.395 147.573 L 263.395 115.573 L 264.035 115.573 C 264.035 115.573 264.648 116.96 265.875 119.733 C 267.102 122.506 268.595 125.813 270.355 129.653 C 272.115 133.493 273.902 137.493 275.715 141.653 C 277.528 145.813 279.022 149.226 280.195 151.893 C 281.582 154.986 282.782 158.08 283.795 161.173 C 284.808 164.266 286.115 167.253 287.715 170.133 Z M 346.914 187.733 C 346.914 190.186 347.874 192.266 349.794 193.973 C 351.714 195.68 353.901 196.533 356.354 196.533 L 377.154 196.533 L 380.194 195.573 L 402.114 195.573 C 404.141 195.573 405.714 194.613 406.834 192.693 C 407.954 190.773 408.514 188.96 408.514 187.253 C 408.514 185.12 407.501 183.573 405.474 182.613 C 403.447 181.653 401.474 181.066 399.554 180.853 C 399.021 180.853 398.141 180.8 396.914 180.693 C 395.687 180.586 394.381 180.506 392.994 180.453 C 391.607 180.4 390.301 180.346 389.074 180.293 C 387.847 180.24 386.967 180.213 386.434 180.213 L 385.794 179.573 L 384.514 173.333 L 384.514 150.133 C 384.514 150.026 384.594 149.76 384.754 149.333 C 384.914 148.906 385.047 148.586 385.154 148.373 C 388.461 141.546 391.714 134.746 394.914 127.973 C 398.114 121.2 401.367 114.4 404.674 107.573 C 404.887 107.04 405.234 106.32 405.714 105.413 C 406.194 104.506 406.647 103.573 407.074 102.613 C 407.501 101.653 407.901 100.826 408.274 100.133 C 408.647 99.44 408.887 98.986 408.994 98.773 C 409.207 98.56 409.527 98.213 409.954 97.733 C 410.381 97.253 410.701 97.013 410.914 97.013 L 419.714 97.013 C 420.461 97.013 421.127 96.773 421.714 96.293 C 422.301 95.813 422.754 95.226 423.074 94.533 C 423.394 93.84 423.634 93.12 423.794 92.373 C 423.954 91.626 424.034 90.933 424.034 90.293 C 424.034 88.693 423.634 87.306 422.834 86.133 C 422.034 84.96 420.994 83.973 419.714 83.173 C 418.434 82.373 417.047 81.76 415.554 81.333 C 414.061 80.906 412.621 80.693 411.234 80.693 C 409.634 80.693 408.087 80.8 406.594 81.013 C 405.101 81.226 403.501 81.333 401.794 81.333 C 399.981 81.333 398.301 81.226 396.754 81.013 C 395.207 80.8 393.527 80.693 391.714 80.693 C 389.581 80.693 387.741 81.2 386.194 82.213 C 384.647 83.226 383.874 84.906 383.874 87.253 C 383.874 89.173 384.194 90.56 384.834 91.413 C 385.474 92.266 386.274 92.986 387.234 93.573 C 388.194 94.16 389.181 94.72 390.194 95.253 C 391.207 95.786 392.034 96.586 392.674 97.653 C 392.781 97.866 392.834 98.24 392.834 98.773 C 392.834 99.2 392.834 99.52 392.834 99.733 C 392.834 101.226 392.594 102.613 392.114 103.893 C 391.634 105.173 391.074 106.426 390.434 107.653 C 389.794 108.88 389.101 110.106 388.354 111.333 C 387.607 112.56 386.967 113.813 386.434 115.093 C 386.327 115.306 386.167 115.733 385.954 116.373 C 385.741 117.013 385.501 117.733 385.234 118.533 C 384.967 119.333 384.701 120.08 384.434 120.773 C 384.167 121.466 384.034 121.866 384.034 121.973 C 383.821 122.293 383.527 122.88 383.154 123.733 C 382.781 124.586 382.354 125.493 381.874 126.453 C 381.394 127.413 380.941 128.293 380.514 129.093 C 380.087 129.893 379.767 130.453 379.554 130.773 C 379.447 131.2 379.181 131.413 378.754 131.413 C 378.434 131.413 378.167 131.413 377.954 131.413 C 377.314 131.413 376.727 131.146 376.194 130.613 C 375.661 130.08 375.181 129.466 374.754 128.773 C 374.327 128.08 373.954 127.333 373.634 126.533 C 373.314 125.733 372.994 125.066 372.674 124.533 L 363.234 105.653 C 363.021 105.226 362.621 104.213 362.034 102.613 C 361.447 101.013 361.047 99.946 360.834 99.413 C 360.834 99.413 360.807 99.333 360.754 99.173 C 360.701 99.013 360.674 98.88 360.674 98.773 C 360.674 97.92 361.181 97.333 362.194 97.013 C 363.207 96.693 364.301 96.32 365.474 95.893 C 366.647 95.466 367.741 94.8 368.754 93.893 C 369.767 92.986 370.274 91.573 370.274 89.653 C 370.274 87.093 369.527 85.226 368.034 84.053 C 366.541 82.88 364.727 82.106 362.594 81.733 C 360.461 81.36 358.247 81.226 355.954 81.333 C 353.661 81.44 351.714 81.44 350.114 81.333 C 349.901 81.333 349.394 81.226 348.594 81.013 C 347.794 80.8 347.287 80.693 347.074 80.693 L 346.114 80.693 C 344.407 80.693 342.594 80.826 340.674 81.093 C 338.754 81.36 336.967 81.866 335.314 82.613 C 333.661 83.36 332.274 84.4 331.154 85.733 C 330.034 87.066 329.474 88.8 329.474 90.933 C 329.474 92.853 329.981 94.32 330.994 95.333 C 332.007 96.346 333.234 97.04 334.674 97.413 C 336.114 97.786 337.661 98 339.314 98.053 C 340.967 98.106 342.487 98.133 343.874 98.133 C 344.941 98.986 345.821 99.973 346.514 101.093 C 347.207 102.213 347.821 103.413 348.354 104.693 C 348.887 105.973 349.447 107.253 350.034 108.533 C 350.621 109.813 351.287 110.986 352.034 112.053 C 352.141 112.16 352.461 112.533 352.994 113.173 C 353.527 113.813 353.847 114.24 353.954 114.453 C 355.021 116.906 355.874 119.306 356.514 121.653 C 357.154 124 358.381 126.186 360.194 128.213 L 370.114 150.133 L 370.114 179.573 L 369.634 180.213 C 369.421 180.213 368.781 180.24 367.714 180.293 C 366.647 180.346 365.847 180.373 365.314 180.373 C 363.501 180.373 361.821 180.24 360.274 179.973 C 358.727 179.706 357.101 179.573 355.394 179.573 C 353.261 179.573 351.314 180.4 349.554 182.053 C 347.794 183.706 346.914 185.6 346.914 187.733 Z"></path>
  <path d="M 44.605 408.147 C 44.605 410.227 45.602 412.177 47.595 413.997 C 49.588 415.817 52.015 417.334 54.875 418.547 C 57.735 419.76 60.595 420.714 63.455 421.407 C 66.315 422.1 68.698 422.447 70.605 422.447 C 76.152 422.447 81.438 421.58 86.465 419.847 C 91.492 418.114 96.778 417.247 102.325 417.247 C 105.618 417.247 108.782 417.81 111.815 418.937 C 114.848 420.064 118.012 420.627 121.305 420.627 C 123.558 420.627 125.768 420.41 127.935 419.977 C 130.102 419.544 132.052 418.85 133.785 417.897 C 135.518 416.944 136.905 415.644 137.945 413.997 C 138.985 412.35 139.505 410.314 139.505 407.887 C 139.505 403.727 138.335 400.607 135.995 398.527 C 133.655 396.447 130.795 394.93 127.415 393.977 C 124.035 393.024 120.438 392.46 116.625 392.287 C 112.812 392.114 109.518 392.027 106.745 392.027 L 104.665 389.947 L 103.365 306.487 L 103.365 301.287 L 102.845 275.807 C 103.538 273.38 104.015 270.607 104.275 267.487 C 104.535 264.367 104.665 261.767 104.665 259.687 L 105.705 258.647 C 105.878 258.647 106.485 258.604 107.525 258.517 C 108.565 258.43 109.258 258.387 109.605 258.387 C 112.032 258.387 114.588 258.734 117.275 259.427 C 119.962 260.12 122.475 261.204 124.815 262.677 C 127.155 264.15 129.062 265.97 130.535 268.137 C 132.008 270.304 132.745 272.86 132.745 275.807 L 132.745 303.367 C 132.745 306.487 134.045 309.347 136.645 311.947 C 139.245 314.547 142.018 315.847 144.965 315.847 C 148.605 315.847 151.465 314.287 153.545 311.167 C 155.625 308.047 156.665 304.754 156.665 301.287 L 156.665 249.547 C 156.665 246.254 155.322 243.134 152.635 240.187 C 149.948 237.24 146.872 235.767 143.405 235.767 L 85.425 235.767 C 83.865 234.9 82.565 234.424 81.525 234.337 C 80.485 234.25 79.272 234.207 77.885 234.207 C 76.325 234.207 75.068 234.25 74.115 234.337 C 73.162 234.424 71.818 234.9 70.085 235.767 L 38.625 235.767 C 37.065 235.767 35.635 236.374 34.335 237.587 C 33.035 238.8 31.865 240.23 30.825 241.877 C 29.785 243.524 28.962 245.214 28.355 246.947 C 27.748 248.68 27.445 250.154 27.445 251.367 L 27.445 301.287 C 27.445 304.407 28.312 307.614 30.045 310.907 C 31.778 314.2 34.378 315.847 37.845 315.847 C 42.178 315.847 45.212 314.677 46.945 312.337 C 48.678 309.997 49.718 307.05 50.065 303.497 C 50.412 299.944 50.542 296 50.455 291.667 C 50.368 287.334 50.758 283.13 51.625 279.057 C 52.492 274.984 54.182 271.257 56.695 267.877 C 59.208 264.497 63.325 262.114 69.045 260.727 C 69.392 260.554 70.215 260.424 71.515 260.337 C 72.815 260.25 73.725 260.207 74.245 260.207 C 74.592 260.207 75.285 260.25 76.325 260.337 C 77.365 260.424 78.058 260.554 78.405 260.727 L 79.445 261.767 L 79.445 390.987 L 76.325 394.367 L 51.885 394.367 C 50.325 394.367 49.068 394.887 48.115 395.927 C 47.162 396.967 46.425 398.224 45.905 399.697 C 45.385 401.17 45.038 402.687 44.865 404.247 C 44.692 405.807 44.605 407.107 44.605 408.147 Z M 162.116 410.227 C 162.116 409.88 162.159 409.144 162.246 408.017 C 162.333 406.89 162.376 406.154 162.376 405.807 C 164.109 403.727 165.669 402.167 167.056 401.127 C 168.443 400.087 169.916 399.264 171.476 398.657 C 173.036 398.05 174.683 397.487 176.416 396.967 C 178.149 396.447 180.229 395.667 182.656 394.627 C 183.869 394.107 184.953 393.154 185.906 391.767 C 186.859 390.38 187.639 388.907 188.246 387.347 C 188.853 385.787 189.373 384.184 189.806 382.537 C 190.239 380.89 190.629 379.46 190.976 378.247 C 191.496 376.514 192.319 373.48 193.446 369.147 C 194.573 364.814 195.786 360.22 197.086 355.367 C 198.386 350.514 199.599 345.92 200.726 341.587 C 201.853 337.254 202.676 334.22 203.196 332.487 C 204.756 328.674 205.796 324.947 206.316 321.307 C 206.836 317.667 207.789 313.94 209.176 310.127 C 211.949 301.807 214.766 293.487 217.626 285.167 C 220.486 276.847 223.129 268.527 225.556 260.207 C 226.076 258.474 226.639 256.307 227.246 253.707 C 227.853 251.107 228.676 248.637 229.716 246.297 C 230.756 243.957 232.143 241.964 233.876 240.317 C 235.609 238.67 237.863 237.847 240.636 237.847 C 243.756 237.847 246.269 238.887 248.176 240.967 C 250.083 243.047 251.599 245.517 252.726 248.377 C 253.853 251.237 254.719 254.184 255.326 257.217 C 255.933 260.25 256.496 262.634 257.016 264.367 C 258.749 270.26 260.136 276.284 261.176 282.437 C 262.216 288.59 264.209 294.44 267.156 299.987 L 291.596 392.547 C 292.116 394.28 293.113 395.667 294.586 396.707 C 296.059 397.747 297.749 398.57 299.656 399.177 C 301.563 399.784 303.426 400.26 305.246 400.607 C 307.066 400.954 308.669 401.3 310.056 401.647 C 313.349 403.727 314.996 406.934 314.996 411.267 C 314.996 415.427 313.696 418.59 311.096 420.757 C 308.496 422.924 305.203 424.007 301.216 424.007 C 296.883 424.007 292.376 423.877 287.696 423.617 C 283.016 423.357 278.596 423.14 274.436 422.967 C 271.663 422.967 269.063 422.88 266.636 422.707 C 264.209 422.534 262.043 422.057 260.136 421.277 C 258.229 420.497 256.713 419.24 255.586 417.507 C 254.459 415.774 253.896 413.347 253.896 410.227 L 253.896 405.807 C 255.109 404.247 256.539 403.077 258.186 402.297 C 259.833 401.517 261.479 400.78 263.126 400.087 C 264.773 399.394 266.246 398.657 267.546 397.877 C 268.846 397.097 269.756 396.014 270.276 394.627 C 270.276 394.28 270.189 393.544 270.016 392.417 C 269.843 391.29 269.626 390.12 269.366 388.907 C 269.106 387.694 268.889 386.567 268.716 385.527 C 268.543 384.487 268.369 383.794 268.196 383.447 C 268.023 382.927 267.763 381.974 267.416 380.587 C 267.069 379.2 266.549 377.727 265.856 376.167 C 265.163 374.607 264.426 373.22 263.646 372.007 C 262.866 370.794 262.043 370.187 261.176 370.187 L 220.356 370.187 C 220.009 370.187 219.143 370.75 217.756 371.877 C 216.369 373.004 215.589 373.74 215.416 374.087 L 208.136 389.427 C 208.136 389.6 208.093 390.12 208.006 390.987 C 207.919 391.854 207.876 392.46 207.876 392.807 C 207.876 395.754 208.699 397.747 210.346 398.787 C 211.993 399.827 213.769 400.78 215.676 401.647 C 217.583 402.514 219.359 403.684 221.006 405.157 C 222.653 406.63 223.476 409.187 223.476 412.827 C 223.476 416.814 222.133 419.674 219.446 421.407 C 216.759 423.14 213.509 424.007 209.696 424.007 C 207.269 424.007 204.886 423.834 202.546 423.487 C 200.206 423.14 197.736 422.967 195.136 422.967 C 191.669 422.967 188.289 423.27 184.996 423.877 C 181.703 424.484 178.323 424.787 174.856 424.787 C 170.869 424.787 167.749 423.27 165.496 420.237 C 163.243 417.204 162.116 413.867 162.116 410.227 Z M 222.436 346.787 C 224.343 348 226.163 348.65 227.896 348.737 C 229.629 348.824 231.709 348.867 234.136 348.867 C 237.603 348.867 241.026 348.607 244.406 348.087 C 247.786 347.567 251.296 347.134 254.936 346.787 L 255.976 345.747 C 255.976 345.574 256.019 345.097 256.106 344.317 C 256.193 343.537 256.236 342.974 256.236 342.627 C 256.236 341.24 255.889 338.857 255.196 335.477 C 254.503 332.097 253.593 328.37 252.466 324.297 C 251.339 320.224 250.083 316.02 248.696 311.687 C 247.309 307.354 246.009 303.41 244.796 299.857 C 243.583 296.304 242.543 293.357 241.676 291.017 C 240.809 288.677 240.289 287.507 240.116 287.507 C 239.423 287.507 238.903 287.94 238.556 288.807 C 238.209 289.674 237.949 290.28 237.776 290.627 C 237.256 292.014 236.519 294.05 235.566 296.737 C 234.613 299.424 233.616 302.11 232.576 304.797 C 231.536 307.484 230.626 309.91 229.846 312.077 C 229.066 314.244 228.589 315.587 228.416 316.107 C 227.029 320.614 225.643 325.207 224.256 329.887 C 222.869 334.567 222.176 339.16 222.176 343.667 C 222.176 344.014 222.219 344.534 222.306 345.227 C 222.393 345.92 222.436 346.44 222.436 346.787 Z M 325.92 347.827 C 327.133 352.507 327.957 357.274 328.39 362.127 C 328.823 366.98 329.733 371.747 331.12 376.427 C 332.507 382.32 334.89 388.127 338.27 393.847 C 341.65 399.567 345.68 404.68 350.36 409.187 C 355.04 413.694 360.283 417.334 366.09 420.107 C 371.897 422.88 378.007 424.267 384.42 424.267 C 386.5 424.267 388.32 424.31 389.88 424.397 C 391.44 424.484 393.173 424.094 395.08 423.227 C 396.64 422.707 398.2 421.884 399.76 420.757 C 401.32 419.63 402.967 418.504 404.7 417.377 C 406.433 416.25 408.123 415.254 409.77 414.387 C 411.417 413.52 413.02 413.087 414.58 413.087 C 415.62 413.087 416.487 413.607 417.18 414.647 C 417.873 415.687 418.653 416.857 419.52 418.157 C 420.387 419.457 421.47 420.627 422.77 421.667 C 424.07 422.707 425.847 423.227 428.1 423.227 C 432.087 423.227 435.207 421.58 437.46 418.287 C 439.713 414.994 440.84 411.44 440.84 407.627 C 440.84 405.547 440.667 403.51 440.32 401.517 C 439.973 399.524 439.8 397.4 439.8 395.147 C 439.8 393.24 439.8 391.507 439.8 389.947 C 439.8 388.214 440.147 386.394 440.84 384.487 L 440.84 355.107 C 440.84 354.76 440.97 353.894 441.23 352.507 C 441.49 351.12 442.053 350.254 442.92 349.907 C 445.173 349.907 447.73 349.82 450.59 349.647 C 453.45 349.474 456.137 348.997 458.65 348.217 C 461.163 347.437 463.243 346.137 464.89 344.317 C 466.537 342.497 467.36 339.94 467.36 336.647 C 467.36 334.22 466.883 332.27 465.93 330.797 C 464.977 329.324 463.72 328.197 462.16 327.417 C 460.6 326.637 458.823 326.117 456.83 325.857 C 454.837 325.597 452.8 325.467 450.72 325.467 C 448.293 325.467 445.91 325.64 443.57 325.987 C 441.23 326.334 438.847 326.507 436.42 326.507 C 430.873 326.507 425.327 325.987 419.78 324.947 C 414.233 323.907 408.687 323.387 403.14 323.387 C 399.847 323.387 397.333 324.774 395.6 327.547 C 393.867 330.32 393 333.18 393 336.127 C 393 339.074 393.693 341.37 395.08 343.017 C 396.467 344.664 398.243 345.964 400.41 346.917 C 402.577 347.87 404.917 348.564 407.43 348.997 C 409.943 349.43 412.327 349.734 414.58 349.907 L 416.4 351.987 C 416.573 352.16 416.66 353.027 416.66 354.587 C 416.66 355.974 416.66 357.014 416.66 357.707 C 416.66 362.387 415.923 367.154 414.45 372.007 C 412.977 376.86 410.853 381.194 408.08 385.007 C 405.307 388.82 401.927 391.94 397.94 394.367 C 393.953 396.794 389.447 398.007 384.42 398.007 C 379.393 398.007 374.8 396.36 370.64 393.067 C 366.48 389.774 362.927 385.744 359.98 380.977 C 357.033 376.21 354.693 371.184 352.96 365.897 C 351.227 360.61 350.36 355.974 350.36 351.987 L 350.36 302.067 C 351.053 300.507 351.573 299.25 351.92 298.297 C 352.267 297.344 352.527 296.434 352.7 295.567 C 352.873 294.7 353.047 293.66 353.22 292.447 C 353.393 291.234 353.827 289.674 354.52 287.767 C 356.947 280.14 360.457 273.64 365.05 268.267 C 369.643 262.894 376.1 260.207 384.42 260.207 C 391.527 260.207 397.117 261.377 401.19 263.717 C 405.263 266.057 408.383 269.047 410.55 272.687 C 412.717 276.327 414.233 280.184 415.1 284.257 C 415.967 288.33 416.833 292.187 417.7 295.827 C 418.567 299.467 419.737 302.457 421.21 304.797 C 422.683 307.137 425.153 308.307 428.62 308.307 C 432.433 308.307 435.207 306.704 436.94 303.497 C 438.673 300.29 439.887 296.564 440.58 292.317 C 441.273 288.07 441.707 283.867 441.88 279.707 C 442.053 275.547 442.4 272.514 442.92 270.607 L 442.92 242.007 C 442.92 239.234 442.14 237.154 440.58 235.767 C 439.02 234.38 436.94 233.687 434.34 233.687 C 431.22 233.687 428.88 234.38 427.32 235.767 C 425.76 237.154 424.503 238.714 423.55 240.447 C 422.597 242.18 421.773 243.74 421.08 245.127 C 420.387 246.514 419.347 247.207 417.96 247.207 C 415.707 247.207 413.8 246.297 412.24 244.477 C 410.68 242.657 409.033 241.227 407.3 240.187 C 404.007 237.934 400.193 235.984 395.86 234.337 C 391.527 232.69 387.367 231.867 383.38 231.867 C 376.62 231.867 370.207 233.904 364.14 237.977 C 358.073 242.05 352.657 247.077 347.89 253.057 C 343.123 259.037 339.18 265.537 336.06 272.557 C 332.94 279.577 330.947 286.034 330.08 291.927 C 329.213 296.607 328.607 301.374 328.26 306.227 C 327.913 311.08 327.133 315.847 325.92 320.527 L 325.92 347.827 Z" style="fill: white"></path>
</svg>
