<svg xmlns="http://www.w3.org/2000/svg" viewBox="0 0 500 500">
  <rect width="500" height="500" rx="100" ry="100"></rect>
  <rect x="62" y="72" width="376" height="142" style="fill: white" rx="10" ry="10"></rect>
  <path d="M 86.599 191.04 C 86.599 192.32 87.212 193.52 88.439 194.64 C 89.666 195.76 91.159 196.693 92.919 197.44 C 94.679 198.187 96.439 198.773 98.199 199.2 C 99.959 199.627 101.426 199.84 102.599 199.84 C 106.012 199.84 109.266 199.307 112.359 198.24 C 115.452 197.173 118.706 196.64 122.119 196.64 C 124.146 196.64 126.092 196.987 127.959 197.68 C 129.826 198.373 131.772 198.72 133.799 198.72 C 135.186 198.72 136.546 198.587 137.879 198.32 C 139.212 198.053 140.412 197.627 141.479 197.04 C 142.546 196.453 143.399 195.653 144.039 194.64 C 144.679 193.627 144.999 192.373 144.999 190.88 C 144.999 188.32 144.279 186.4 142.839 185.12 C 141.399 183.84 139.639 182.907 137.559 182.32 C 135.479 181.733 133.266 181.387 130.919 181.28 C 128.572 181.173 126.546 181.12 124.839 181.12 L 123.559 179.84 L 122.759 128.48 L 122.759 125.28 L 122.439 109.6 C 122.866 108.107 123.159 106.4 123.319 104.48 C 123.479 102.56 123.559 100.96 123.559 99.68 L 124.199 99.04 C 124.306 99.04 124.679 99.013 125.319 98.96 C 125.959 98.907 126.386 98.88 126.599 98.88 C 128.092 98.88 129.666 99.093 131.319 99.52 C 132.972 99.947 134.519 100.613 135.959 101.52 C 137.399 102.427 138.572 103.547 139.479 104.88 C 140.386 106.213 140.839 107.787 140.839 109.6 L 140.839 126.56 C 140.839 128.48 141.639 130.24 143.239 131.84 C 144.839 133.44 146.546 134.24 148.359 134.24 C 150.599 134.24 152.359 133.28 153.639 131.36 C 154.919 129.44 155.559 127.413 155.559 125.28 L 155.559 93.44 C 155.559 91.413 154.732 89.493 153.079 87.68 C 151.426 85.867 149.532 84.96 147.399 84.96 L 111.719 84.96 C 110.759 84.427 109.959 84.133 109.319 84.08 C 108.679 84.027 107.932 84 107.079 84 C 106.119 84 105.346 84.027 104.759 84.08 C 104.172 84.133 103.346 84.427 102.279 84.96 L 82.919 84.96 C 81.959 84.96 81.079 85.333 80.279 86.08 C 79.479 86.827 78.759 87.707 78.119 88.72 C 77.479 89.733 76.972 90.773 76.599 91.84 C 76.226 92.907 76.039 93.813 76.039 94.56 L 76.039 125.28 C 76.039 127.2 76.572 129.173 77.639 131.2 C 78.706 133.227 80.306 134.24 82.439 134.24 C 85.106 134.24 86.972 133.52 88.039 132.08 C 89.106 130.64 89.746 128.827 89.959 126.64 C 90.172 124.453 90.252 122.027 90.199 119.36 C 90.146 116.693 90.386 114.107 90.919 111.6 C 91.452 109.093 92.492 106.8 94.039 104.72 C 95.586 102.64 98.119 101.173 101.639 100.32 C 101.852 100.213 102.359 100.133 103.159 100.08 C 103.959 100.027 104.519 100 104.839 100 C 105.052 100 105.479 100.027 106.119 100.08 C 106.759 100.133 107.186 100.213 107.399 100.32 L 108.039 100.96 L 108.039 180.48 L 106.119 182.56 L 91.079 182.56 C 90.119 182.56 89.346 182.88 88.759 183.52 C 88.172 184.16 87.719 184.933 87.399 185.84 C 87.079 186.747 86.866 187.68 86.759 188.64 C 86.652 189.6 86.599 190.4 86.599 191.04 Z M 159.077 192.96 C 159.077 194.773 159.424 196.267 160.117 197.44 C 160.81 198.613 161.744 199.547 162.917 200.24 C 164.09 200.933 165.397 201.413 166.837 201.68 C 168.277 201.947 169.744 202.08 171.237 202.08 C 173.69 202.08 175.984 201.973 178.117 201.76 C 180.25 201.547 182.544 201.44 184.997 201.44 C 186.17 201.44 187.744 201.413 189.717 201.36 C 191.69 201.307 193.37 201.547 194.757 202.08 L 216.677 202.08 C 219.45 202.08 222.037 201.253 224.437 199.6 C 226.837 197.947 228.037 195.573 228.037 192.48 C 228.037 191.52 227.744 190.56 227.157 189.6 C 226.57 188.64 225.85 187.813 224.997 187.12 C 224.144 186.427 223.184 185.867 222.117 185.44 C 221.05 185.013 220.037 184.8 219.077 184.8 L 203.557 184.8 L 201.637 182.72 L 201.637 140.8 C 201.957 139.733 202.144 138.827 202.197 138.08 C 202.25 137.333 202.277 136.48 202.277 135.52 C 202.277 134.453 202.25 133.573 202.197 132.88 C 202.144 132.187 201.957 131.253 201.637 130.08 L 201.637 103.2 L 202.277 102.56 L 205.477 102.56 C 207.504 102.56 209.424 102.693 211.237 102.96 C 213.05 103.227 214.97 103.36 216.997 103.36 C 219.77 103.36 222.09 102.907 223.957 102 C 225.824 101.093 226.757 99.093 226.757 96 C 226.757 92.693 225.717 90.507 223.637 89.44 C 221.557 88.373 219.077 87.733 216.197 87.52 C 213.317 87.307 210.384 87.253 207.397 87.36 C 204.41 87.467 202.064 87.04 200.357 86.08 L 174.757 86.08 C 173.69 85.547 172.864 85.253 172.277 85.2 C 171.69 85.147 170.97 85.12 170.117 85.12 C 168.944 85.12 167.717 85.307 166.437 85.68 C 165.157 86.053 164.01 86.613 162.997 87.36 C 161.984 88.107 161.157 89.013 160.517 90.08 C 159.877 91.147 159.557 92.32 159.557 93.6 C 159.557 94.773 159.877 95.947 160.517 97.12 C 161.157 98.293 161.957 99.36 162.917 100.32 C 163.877 101.28 164.944 102.053 166.117 102.64 C 167.29 103.227 168.464 103.52 169.637 103.52 L 186.597 103.52 L 187.237 104.48 C 187.237 104.587 187.264 104.88 187.317 105.36 C 187.37 105.84 187.397 106.187 187.397 106.4 C 187.397 107.467 187.344 108.4 187.237 109.2 C 187.13 110 186.81 110.933 186.277 112 L 186.277 182.72 C 186.277 183.04 185.904 183.333 185.157 183.6 C 184.41 183.867 183.61 184.08 182.757 184.24 C 181.904 184.4 181.05 184.507 180.197 184.56 C 179.344 184.613 178.864 184.64 178.757 184.64 C 177.264 184.64 175.797 184.507 174.357 184.24 C 172.917 183.973 171.45 183.84 169.957 183.84 C 167.184 183.84 164.677 184.587 162.437 186.08 C 160.197 187.573 159.077 189.867 159.077 192.96 Z M 287.715 174.08 L 293.955 194.08 C 294.488 195.893 295.662 197.493 297.475 198.88 C 299.288 200.267 301.155 200.96 303.075 200.96 C 305.208 200.96 307.155 200.16 308.915 198.56 C 310.675 196.96 311.555 195.04 311.555 192.8 L 311.235 140.8 L 311.235 137.76 L 310.915 102.08 L 311.555 101.44 C 312.622 101.44 313.848 101.44 315.235 101.44 C 316.622 101.44 317.982 101.36 319.315 101.2 C 320.648 101.04 321.902 100.693 323.075 100.16 C 324.248 99.627 325.208 98.773 325.955 97.6 C 325.955 97.387 325.982 96.907 326.035 96.16 C 326.088 95.413 326.115 94.933 326.115 94.72 C 326.115 91.307 324.835 88.827 322.275 87.28 C 319.715 85.733 316.835 84.96 313.635 84.96 C 312.568 84.96 311.688 85.013 310.995 85.12 C 310.302 85.227 309.422 85.547 308.355 86.08 L 284.035 86.08 C 282.542 86.08 281.315 86.64 280.355 87.76 C 279.395 88.88 278.915 90.08 278.915 91.36 C 278.915 93.6 279.448 95.36 280.515 96.64 C 281.582 97.92 282.942 98.907 284.595 99.6 C 286.248 100.293 288.035 100.747 289.955 100.96 C 291.875 101.173 293.635 101.333 295.235 101.44 L 296.835 102.56 L 296.835 147.68 C 297.048 147.893 297.262 148.427 297.475 149.28 C 297.688 150.133 297.795 150.667 297.795 150.88 C 297.795 151.413 297.795 152.32 297.795 153.6 C 297.795 154.88 297.768 156.213 297.715 157.6 C 297.662 158.987 297.608 160.32 297.555 161.6 C 297.502 162.88 297.475 163.787 297.475 164.32 C 297.368 164.32 297.315 164.427 297.315 164.64 C 297.315 164.747 297.262 164.747 297.155 164.64 C 297.048 164.533 296.835 164.24 296.515 163.76 C 296.195 163.28 295.982 162.933 295.875 162.72 C 293.528 157.92 291.315 152.853 289.235 147.52 C 287.155 142.187 285.208 137.227 283.395 132.64 C 283.395 132.533 283.315 132.267 283.155 131.84 C 282.995 131.413 282.862 130.96 282.755 130.48 C 282.648 130 282.515 129.547 282.355 129.12 C 282.195 128.693 282.115 128.427 282.115 128.32 C 282.008 128 281.635 127.2 280.995 125.92 C 280.355 124.64 279.688 123.253 278.995 121.76 C 278.302 120.267 277.635 118.88 276.995 117.6 C 276.355 116.32 275.982 115.52 275.875 115.2 C 275.662 114.667 275.182 113.387 274.435 111.36 C 273.688 109.333 272.915 107.147 272.115 104.8 C 271.315 102.453 270.542 100.293 269.795 98.32 C 269.048 96.347 268.568 95.093 268.355 94.56 C 267.715 92.747 266.622 90.933 265.075 89.12 C 263.528 87.307 261.688 86.4 259.555 86.4 L 241.475 86.4 C 238.915 86.4 236.782 87.2 235.075 88.8 C 233.368 90.4 232.515 92.373 232.515 94.72 C 232.515 95.253 232.568 95.92 232.675 96.72 C 232.782 97.52 232.968 98.267 233.235 98.96 C 233.502 99.653 233.875 100.24 234.355 100.72 C 234.835 101.2 235.502 101.44 236.355 101.44 L 247.715 101.44 L 248.995 102.56 C 248.995 113.547 249.208 124.453 249.635 135.28 C 250.062 146.107 250.275 156.96 250.275 167.84 C 250.275 170.08 250.115 172.24 249.795 174.32 C 249.475 176.4 249.422 178.613 249.635 180.96 L 248.355 182.24 C 247.928 182.24 247.208 182.267 246.195 182.32 C 245.182 182.373 244.115 182.427 242.995 182.48 C 241.875 182.533 240.808 182.587 239.795 182.64 C 238.782 182.693 238.062 182.72 237.635 182.72 C 235.715 182.933 234.302 183.973 233.395 185.84 C 232.488 187.707 231.822 189.387 231.395 190.88 L 231.395 192.48 C 231.395 194.293 232.008 195.813 233.235 197.04 C 234.462 198.267 235.928 199.147 237.635 199.68 C 238.275 199.68 239.368 199.733 240.915 199.84 C 242.462 199.947 244.088 200.027 245.795 200.08 C 247.502 200.133 249.128 200.187 250.675 200.24 C 252.222 200.293 253.315 200.32 253.955 200.32 L 256.355 200.32 C 260.408 200.32 264.248 200.053 267.875 199.52 C 271.502 198.987 275.395 198.827 279.555 199.04 C 281.688 198.507 283.075 197.413 283.715 195.76 C 284.355 194.107 284.675 192.427 284.675 190.72 L 284.675 188.48 L 282.115 185.92 C 282.008 185.813 281.662 185.653 281.075 185.44 C 280.488 185.227 279.795 184.987 278.995 184.72 C 278.195 184.453 277.368 184.187 276.515 183.92 C 275.662 183.653 275.022 183.467 274.595 183.36 L 272.995 183.36 C 272.035 183.36 271.208 183.6 270.515 184.08 C 269.822 184.56 268.995 184.8 268.035 184.8 C 267.288 184.8 266.328 184.373 265.155 183.52 C 263.982 182.667 263.395 181.813 263.395 180.96 L 263.395 164.64 C 263.822 163.467 264.035 162.4 264.035 161.44 C 264.035 160.373 264.035 159.253 264.035 158.08 C 264.035 156.907 264.035 155.84 264.035 154.88 C 264.035 153.813 263.822 152.693 263.395 151.52 L 263.395 119.52 L 264.035 119.52 C 264.035 119.52 264.648 120.907 265.875 123.68 C 267.102 126.453 268.595 129.76 270.355 133.6 C 272.115 137.44 273.902 141.44 275.715 145.6 C 277.528 149.76 279.022 153.173 280.195 155.84 C 281.582 158.933 282.782 162.027 283.795 165.12 C 284.808 168.213 286.115 171.2 287.715 174.08 Z M 346.914 191.68 C 346.914 194.133 347.874 196.213 349.794 197.92 C 351.714 199.627 353.901 200.48 356.354 200.48 L 377.154 200.48 L 380.194 199.52 L 402.114 199.52 C 404.141 199.52 405.714 198.56 406.834 196.64 C 407.954 194.72 408.514 192.907 408.514 191.2 C 408.514 189.067 407.501 187.52 405.474 186.56 C 403.447 185.6 401.474 185.013 399.554 184.8 C 399.021 184.8 398.141 184.747 396.914 184.64 C 395.687 184.533 394.381 184.453 392.994 184.4 C 391.607 184.347 390.301 184.293 389.074 184.24 C 387.847 184.187 386.967 184.16 386.434 184.16 L 385.794 183.52 L 384.514 177.28 L 384.514 154.08 C 384.514 153.973 384.594 153.707 384.754 153.28 C 384.914 152.853 385.047 152.533 385.154 152.32 C 388.461 145.493 391.714 138.693 394.914 131.92 C 398.114 125.147 401.367 118.347 404.674 111.52 C 404.887 110.987 405.234 110.267 405.714 109.36 C 406.194 108.453 406.647 107.52 407.074 106.56 C 407.501 105.6 407.901 104.773 408.274 104.08 C 408.647 103.387 408.887 102.933 408.994 102.72 C 409.207 102.507 409.527 102.16 409.954 101.68 C 410.381 101.2 410.701 100.96 410.914 100.96 L 419.714 100.96 C 420.461 100.96 421.127 100.72 421.714 100.24 C 422.301 99.76 422.754 99.173 423.074 98.48 C 423.394 97.787 423.634 97.067 423.794 96.32 C 423.954 95.573 424.034 94.88 424.034 94.24 C 424.034 92.64 423.634 91.253 422.834 90.08 C 422.034 88.907 420.994 87.92 419.714 87.12 C 418.434 86.32 417.047 85.707 415.554 85.28 C 414.061 84.853 412.621 84.64 411.234 84.64 C 409.634 84.64 408.087 84.747 406.594 84.96 C 405.101 85.173 403.501 85.28 401.794 85.28 C 399.981 85.28 398.301 85.173 396.754 84.96 C 395.207 84.747 393.527 84.64 391.714 84.64 C 389.581 84.64 387.741 85.147 386.194 86.16 C 384.647 87.173 383.874 88.853 383.874 91.2 C 383.874 93.12 384.194 94.507 384.834 95.36 C 385.474 96.213 386.274 96.933 387.234 97.52 C 388.194 98.107 389.181 98.667 390.194 99.2 C 391.207 99.733 392.034 100.533 392.674 101.6 C 392.781 101.813 392.834 102.187 392.834 102.72 C 392.834 103.147 392.834 103.467 392.834 103.68 C 392.834 105.173 392.594 106.56 392.114 107.84 C 391.634 109.12 391.074 110.373 390.434 111.6 C 389.794 112.827 389.101 114.053 388.354 115.28 C 387.607 116.507 386.967 117.76 386.434 119.04 C 386.327 119.253 386.167 119.68 385.954 120.32 C 385.741 120.96 385.501 121.68 385.234 122.48 C 384.967 123.28 384.701 124.027 384.434 124.72 C 384.167 125.413 384.034 125.813 384.034 125.92 C 383.821 126.24 383.527 126.827 383.154 127.68 C 382.781 128.533 382.354 129.44 381.874 130.4 C 381.394 131.36 380.941 132.24 380.514 133.04 C 380.087 133.84 379.767 134.4 379.554 134.72 C 379.447 135.147 379.181 135.36 378.754 135.36 C 378.434 135.36 378.167 135.36 377.954 135.36 C 377.314 135.36 376.727 135.093 376.194 134.56 C 375.661 134.027 375.181 133.413 374.754 132.72 C 374.327 132.027 373.954 131.28 373.634 130.48 C 373.314 129.68 372.994 129.013 372.674 128.48 L 363.234 109.6 C 363.021 109.173 362.621 108.16 362.034 106.56 C 361.447 104.96 361.047 103.893 360.834 103.36 C 360.834 103.36 360.807 103.28 360.754 103.12 C 360.701 102.96 360.674 102.827 360.674 102.72 C 360.674 101.867 361.181 101.28 362.194 100.96 C 363.207 100.64 364.301 100.267 365.474 99.84 C 366.647 99.413 367.741 98.747 368.754 97.84 C 369.767 96.933 370.274 95.52 370.274 93.6 C 370.274 91.04 369.527 89.173 368.034 88 C 366.541 86.827 364.727 86.053 362.594 85.68 C 360.461 85.307 358.247 85.173 355.954 85.28 C 353.661 85.387 351.714 85.387 350.114 85.28 C 349.901 85.28 349.394 85.173 348.594 84.96 C 347.794 84.747 347.287 84.64 347.074 84.64 L 346.114 84.64 C 344.407 84.64 342.594 84.773 340.674 85.04 C 338.754 85.307 336.967 85.813 335.314 86.56 C 333.661 87.307 332.274 88.347 331.154 89.68 C 330.034 91.013 329.474 92.747 329.474 94.88 C 329.474 96.8 329.981 98.267 330.994 99.28 C 332.007 100.293 333.234 100.987 334.674 101.36 C 336.114 101.733 337.661 101.947 339.314 102 C 340.967 102.053 342.487 102.08 343.874 102.08 C 344.941 102.933 345.821 103.92 346.514 105.04 C 347.207 106.16 347.821 107.36 348.354 108.64 C 348.887 109.92 349.447 111.2 350.034 112.48 C 350.621 113.76 351.287 114.933 352.034 116 C 352.141 116.107 352.461 116.48 352.994 117.12 C 353.527 117.76 353.847 118.187 353.954 118.4 C 355.021 120.853 355.874 123.253 356.514 125.6 C 357.154 127.947 358.381 130.133 360.194 132.16 L 370.114 154.08 L 370.114 183.52 L 369.634 184.16 C 369.421 184.16 368.781 184.187 367.714 184.24 C 366.647 184.293 365.847 184.32 365.314 184.32 C 363.501 184.32 361.821 184.187 360.274 183.92 C 358.727 183.653 357.101 183.52 355.394 183.52 C 353.261 183.52 351.314 184.347 349.554 186 C 347.794 187.653 346.914 189.547 346.914 191.68 Z"></path>
  <path d="M 47.163 420.353 C 47.163 422.434 48.161 424.385 50.154 426.206 C 52.147 428.026 54.575 429.544 57.435 430.757 C 60.296 431.971 63.156 432.925 66.017 433.619 C 68.878 434.312 71.261 434.659 73.168 434.659 C 78.716 434.659 84.003 433.792 89.031 432.058 C 94.059 430.324 99.346 429.457 104.894 429.457 C 108.188 429.457 111.353 430.02 114.386 431.148 C 117.42 432.275 120.585 432.838 123.878 432.838 C 126.132 432.838 128.342 432.621 130.509 432.188 C 132.677 431.755 134.627 431.061 136.361 430.107 C 138.094 429.154 139.481 427.853 140.521 426.206 C 141.562 424.558 142.082 422.521 142.082 420.093 C 142.082 415.931 140.911 412.81 138.571 410.729 C 136.231 408.648 133.37 407.131 129.989 406.177 C 126.609 405.224 123.011 404.66 119.197 404.487 C 115.383 404.313 112.089 404.226 109.315 404.226 L 107.235 402.146 L 105.935 318.651 L 105.935 313.449 L 105.415 287.958 C 106.108 285.53 106.585 282.756 106.845 279.635 C 107.105 276.513 107.235 273.912 107.235 271.832 L 108.275 270.791 C 108.448 270.791 109.055 270.748 110.095 270.661 C 111.136 270.574 111.829 270.531 112.176 270.531 C 114.603 270.531 117.16 270.878 119.847 271.571 C 122.535 272.265 125.048 273.349 127.389 274.823 C 129.729 276.296 131.637 278.117 133.11 280.285 C 134.583 282.453 135.32 285.01 135.32 287.958 L 135.32 315.53 C 135.32 318.651 136.621 321.512 139.221 324.113 C 141.822 326.714 144.595 328.015 147.543 328.015 C 151.183 328.015 154.044 326.454 156.124 323.333 C 158.205 320.212 159.245 316.917 159.245 313.449 L 159.245 261.687 C 159.245 258.393 157.902 255.272 155.214 252.323 C 152.527 249.375 149.45 247.902 145.982 247.902 L 87.991 247.902 C 86.431 247.034 85.131 246.558 84.09 246.471 C 83.05 246.384 81.837 246.341 80.45 246.341 C 78.889 246.341 77.632 246.384 76.679 246.471 C 75.726 246.558 74.382 247.034 72.648 247.902 L 41.182 247.902 C 39.622 247.902 38.192 248.509 36.891 249.722 C 35.591 250.936 34.421 252.366 33.381 254.014 C 32.34 255.662 31.517 257.353 30.91 259.086 C 30.303 260.82 30 262.295 30 263.508 L 30 313.449 C 30 316.57 30.867 319.778 32.601 323.073 C 34.334 326.367 36.934 328.015 40.402 328.015 C 44.736 328.015 47.77 326.844 49.504 324.503 C 51.237 322.162 52.277 319.214 52.624 315.66 C 52.971 312.105 53.101 308.16 53.014 303.825 C 52.927 299.49 53.318 295.284 54.185 291.21 C 55.052 287.135 56.742 283.406 59.256 280.025 C 61.769 276.644 65.887 274.26 71.608 272.872 C 71.955 272.699 72.778 272.569 74.079 272.482 C 75.379 272.395 76.289 272.352 76.809 272.352 C 77.156 272.352 77.849 272.395 78.889 272.482 C 79.93 272.569 80.623 272.699 80.97 272.872 L 82.01 273.912 L 82.01 403.186 L 78.889 406.567 L 54.445 406.567 C 52.884 406.567 51.627 407.088 50.674 408.128 C 49.721 409.168 48.984 410.426 48.464 411.9 C 47.943 413.373 47.596 414.891 47.423 416.451 C 47.25 418.012 47.163 419.313 47.163 420.353 Z M 164.697 422.434 C 164.697 422.087 164.74 421.351 164.827 420.223 C 164.914 419.096 164.957 418.359 164.957 418.012 C 166.69 415.931 168.251 414.371 169.638 413.33 C 171.025 412.29 172.499 411.466 174.059 410.859 C 175.619 410.252 177.266 409.689 179 409.168 C 180.733 408.648 182.814 407.868 185.241 406.827 C 186.454 406.307 187.538 405.354 188.492 403.966 C 189.445 402.579 190.225 401.105 190.832 399.544 C 191.439 397.984 191.959 396.38 192.392 394.732 C 192.825 393.085 193.216 391.654 193.563 390.441 C 194.083 388.707 194.906 385.672 196.033 381.337 C 197.16 377.002 198.374 372.406 199.674 367.551 C 200.974 362.696 202.187 358.1 203.314 353.765 C 204.442 349.431 205.265 346.395 205.785 344.662 C 207.345 340.847 208.385 337.119 208.906 333.477 C 209.426 329.836 210.379 326.107 211.766 322.292 C 214.54 313.969 217.357 305.646 220.218 297.322 C 223.078 288.999 225.722 280.675 228.149 272.352 C 228.669 270.618 229.232 268.45 229.84 265.849 C 230.447 263.248 231.27 260.777 232.31 258.436 C 233.35 256.095 234.738 254.101 236.471 252.454 C 238.204 250.806 240.459 249.982 243.232 249.982 C 246.353 249.982 248.866 251.023 250.774 253.104 C 252.681 255.185 254.197 257.656 255.325 260.517 C 256.452 263.378 257.318 266.326 257.925 269.361 C 258.532 272.395 259.095 274.78 259.615 276.513 C 261.349 282.409 262.736 288.435 263.776 294.591 C 264.816 300.747 266.81 306.599 269.757 312.148 L 294.202 404.747 C 294.722 406.48 295.719 407.868 297.193 408.908 C 298.666 409.949 300.356 410.772 302.264 411.379 C 304.171 411.987 306.034 412.463 307.855 412.81 C 309.675 413.157 311.278 413.503 312.666 413.85 C 315.959 415.931 317.607 419.14 317.607 423.474 C 317.607 427.636 316.306 430.8 313.706 432.968 C 311.105 435.136 307.812 436.22 303.824 436.22 C 299.49 436.22 294.982 436.09 290.301 435.83 C 285.62 435.569 281.2 435.352 277.039 435.179 C 274.265 435.179 271.665 435.092 269.237 434.919 C 266.81 434.746 264.643 434.269 262.736 433.489 C 260.829 432.708 259.312 431.451 258.185 429.717 C 257.058 427.983 256.495 425.555 256.495 422.434 L 256.495 418.012 C 257.708 416.451 259.138 415.281 260.786 414.501 C 262.433 413.72 264.079 412.983 265.727 412.29 C 267.374 411.596 268.847 410.859 270.147 410.079 C 271.448 409.299 272.358 408.215 272.878 406.827 C 272.878 406.48 272.791 405.744 272.618 404.617 C 272.445 403.489 272.228 402.319 271.968 401.105 C 271.708 399.892 271.491 398.764 271.318 397.724 C 271.145 396.683 270.971 395.99 270.798 395.643 C 270.624 395.123 270.364 394.169 270.017 392.782 C 269.67 391.394 269.15 389.92 268.457 388.36 C 267.764 386.799 267.027 385.412 266.247 384.198 C 265.466 382.985 264.643 382.377 263.776 382.377 L 222.948 382.377 C 222.601 382.377 221.735 382.941 220.348 384.068 C 218.961 385.196 218.18 385.932 218.007 386.279 L 210.726 401.625 C 210.726 401.798 210.683 402.319 210.596 403.186 C 210.509 404.053 210.466 404.66 210.466 405.007 C 210.466 407.955 211.289 409.949 212.936 410.989 C 214.584 412.03 216.36 412.983 218.267 413.85 C 220.175 414.718 221.951 415.888 223.598 417.362 C 225.246 418.835 226.069 421.394 226.069 425.035 C 226.069 429.024 224.726 431.885 222.038 433.619 C 219.351 435.352 216.1 436.22 212.286 436.22 C 209.859 436.22 207.475 436.047 205.135 435.699 C 202.794 435.352 200.324 435.179 197.723 435.179 C 194.256 435.179 190.875 435.482 187.581 436.09 C 184.288 436.697 180.907 437 177.439 437 C 173.452 437 170.331 435.482 168.078 432.448 C 165.824 429.414 164.697 426.075 164.697 422.434 Z M 225.029 358.968 C 226.936 360.181 228.756 360.831 230.49 360.918 C 232.223 361.005 234.303 361.049 236.731 361.049 C 240.199 361.049 243.622 360.788 247.003 360.268 C 250.384 359.748 253.894 359.315 257.535 358.968 L 258.575 357.927 C 258.575 357.754 258.618 357.277 258.705 356.497 C 258.792 355.716 258.835 355.153 258.835 354.806 C 258.835 353.418 258.488 351.034 257.795 347.653 C 257.102 344.272 256.192 340.543 255.064 336.468 C 253.937 332.394 252.681 328.188 251.294 323.853 C 249.906 319.518 248.606 315.573 247.393 312.018 C 246.18 308.464 245.14 305.515 244.272 303.175 C 243.405 300.834 242.885 299.663 242.712 299.663 C 242.019 299.663 241.499 300.096 241.152 300.964 C 240.805 301.831 240.545 302.437 240.372 302.784 C 239.852 304.172 239.114 306.209 238.161 308.897 C 237.208 311.585 236.211 314.272 235.171 316.96 C 234.13 319.648 233.22 322.075 232.44 324.243 C 231.66 326.411 231.183 327.755 231.01 328.275 C 229.623 332.784 228.236 337.379 226.849 342.061 C 225.462 346.743 224.769 351.337 224.769 355.846 C 224.769 356.193 224.812 356.714 224.899 357.407 C 224.986 358.1 225.029 358.621 225.029 358.968 Z M 328.533 360.008 C 329.746 364.69 330.57 369.459 331.003 374.314 C 331.436 379.169 332.346 383.938 333.734 388.62 C 335.121 394.515 337.504 400.325 340.885 406.047 C 344.266 411.77 348.296 416.885 352.977 421.394 C 357.658 425.902 362.902 429.544 368.71 432.318 C 374.519 435.092 380.63 436.48 387.044 436.48 C 389.124 436.48 390.945 436.523 392.505 436.61 C 394.065 436.697 395.799 436.307 397.706 435.439 C 399.266 434.919 400.827 434.096 402.387 432.968 C 403.947 431.841 405.595 430.714 407.328 429.587 C 409.061 428.459 410.752 427.463 412.399 426.596 C 414.046 425.728 415.65 425.295 417.21 425.295 C 418.25 425.295 419.117 425.815 419.81 426.856 C 420.503 427.896 421.284 429.067 422.151 430.367 C 423.018 431.668 424.101 432.838 425.401 433.879 C 426.702 434.919 428.479 435.439 430.732 435.439 C 434.72 435.439 437.841 433.792 440.094 430.497 C 442.348 427.203 443.475 423.647 443.475 419.833 C 443.475 417.752 443.302 415.714 442.955 413.72 C 442.608 411.727 442.435 409.602 442.435 407.348 C 442.435 405.44 442.435 403.706 442.435 402.146 C 442.435 400.412 442.782 398.591 443.475 396.683 L 443.475 367.291 C 443.475 366.944 443.605 366.078 443.865 364.69 C 444.125 363.302 444.688 362.436 445.555 362.089 C 447.809 362.089 450.366 362.002 453.227 361.829 C 456.087 361.656 458.775 361.179 461.288 360.398 C 463.802 359.618 465.882 358.317 467.53 356.497 C 469.177 354.676 470 352.118 470 348.823 C 470 346.395 469.523 344.445 468.57 342.971 C 467.617 341.497 466.359 340.37 464.799 339.59 C 463.239 338.809 461.461 338.289 459.468 338.029 C 457.475 337.769 455.437 337.639 453.357 337.639 C 450.929 337.639 448.546 337.812 446.205 338.159 C 443.865 338.506 441.481 338.679 439.054 338.679 C 433.506 338.679 427.959 338.159 422.411 337.119 C 416.863 336.078 411.316 335.558 405.768 335.558 C 402.474 335.558 399.959 336.946 398.226 339.72 C 396.493 342.494 395.626 345.355 395.626 348.303 C 395.626 351.251 396.319 353.548 397.706 355.196 C 399.093 356.844 400.87 358.144 403.037 359.098 C 405.204 360.051 407.545 360.745 410.058 361.179 C 412.572 361.612 414.956 361.916 417.21 362.089 L 419.03 364.17 C 419.203 364.343 419.29 365.21 419.29 366.771 C 419.29 368.158 419.29 369.199 419.29 369.892 C 419.29 374.574 418.553 379.343 417.08 384.198 C 415.606 389.053 413.482 393.389 410.709 397.203 C 407.935 401.018 404.554 404.139 400.567 406.567 C 396.579 408.995 392.072 410.209 387.044 410.209 C 382.016 410.209 377.422 408.561 373.261 405.267 C 369.101 401.972 365.547 397.941 362.599 393.172 C 359.652 388.403 357.311 383.375 355.578 378.086 C 353.845 372.796 352.977 368.158 352.977 364.17 L 352.977 314.229 C 353.671 312.668 354.191 311.411 354.538 310.458 C 354.885 309.504 355.145 308.594 355.318 307.726 C 355.491 306.859 355.665 305.819 355.838 304.605 C 356.011 303.392 356.445 301.831 357.138 299.923 C 359.566 292.293 363.076 285.79 367.67 280.415 C 372.264 275.04 378.722 272.352 387.044 272.352 C 394.152 272.352 399.743 273.522 403.817 275.863 C 407.891 278.204 411.012 281.195 413.179 284.837 C 415.346 288.478 416.863 292.337 417.73 296.412 C 418.597 300.486 419.463 304.345 420.33 307.987 C 421.198 311.628 422.368 314.619 423.841 316.96 C 425.314 319.301 427.785 320.472 431.253 320.472 C 435.066 320.472 437.841 318.868 439.574 315.66 C 441.307 312.451 442.522 308.724 443.215 304.475 C 443.908 300.226 444.342 296.022 444.515 291.86 C 444.688 287.698 445.035 284.664 445.555 282.756 L 445.555 254.144 C 445.555 251.37 444.775 249.289 443.215 247.902 C 441.655 246.514 439.574 245.821 436.974 245.821 C 433.853 245.821 431.513 246.514 429.952 247.902 C 428.392 249.289 427.135 250.85 426.182 252.584 C 425.228 254.317 424.404 255.878 423.711 257.265 C 423.018 258.653 421.978 259.346 420.59 259.346 C 418.337 259.346 416.43 258.436 414.869 256.615 C 413.309 254.794 411.662 253.364 409.928 252.323 C 406.635 250.07 402.82 248.119 398.486 246.471 C 394.152 244.823 389.992 244 386.004 244 C 379.242 244 372.828 246.038 366.76 250.113 C 360.692 254.187 355.275 259.216 350.507 265.199 C 345.739 271.181 341.795 277.684 338.675 284.707 C 335.554 291.73 333.561 298.189 332.693 304.085 C 331.826 308.767 331.22 313.536 330.873 318.391 C 330.526 323.246 329.746 328.015 328.533 332.697 L 328.533 360.008 Z" style="fill: white"></path>
</svg>
